<svg width="18" height="17" viewBox="0 0 18 17" fill="none" xmlns="http://www.w3.org/2000/svg">
<path d="M16.5588 7.54083C16.3462 7.32825 16.0872 7.19426 15.8141 7.135C15.541 5.86855 14.9136 4.66266 13.9293 3.67836C12.945 2.69406 11.7391 2.06663 10.4727 1.79479C10.4135 1.52166 10.2795 1.26141 10.0669 1.05013C9.77187 0.753805 9.38666 0.606934 9.00016 0.606934C8.61366 0.606934 8.22846 0.753805 7.93343 1.04884C7.72086 1.26141 7.58687 1.52037 7.52761 1.7935C6.26119 2.06663 5.05532 2.69406 4.07104 3.67836C3.08676 4.66266 2.45935 5.86855 2.18622 7.135C1.9131 7.19426 1.65415 7.32825 1.44157 7.54083C0.852809 8.1296 0.852809 9.08556 1.44157 9.67433C1.65415 9.88691 1.9131 10.0209 2.18622 10.0802C2.45935 11.3466 3.08547 12.5525 4.06975 13.5368C5.05403 14.5211 6.2599 15.1498 7.52632 15.4217C7.58558 15.6948 7.71957 15.9537 7.93214 16.165C8.22717 16.4601 8.61238 16.6069 8.99887 16.6069C9.38537 16.6069 9.77058 16.4601 10.0656 16.165C10.2782 15.9525 10.4122 15.6935 10.4714 15.4204C11.7378 15.1472 12.9437 14.5198 13.928 13.5355C14.9123 12.5512 15.5397 11.3453 15.8115 10.0789C16.0846 10.0196 16.3449 9.88562 16.5562 9.67304C17.1475 9.08556 17.1475 8.1296 16.5588 7.54083ZM8.64716 1.76258C8.77471 1.63504 8.92286 1.617 9.00016 1.617C9.07746 1.617 9.22562 1.63632 9.35316 1.76258C9.5477 1.95712 9.5477 2.27277 9.35316 2.46731C9.22562 2.59486 9.07746 2.61289 9.00016 2.61289C8.92286 2.61289 8.77471 2.59357 8.64716 2.46731C8.45262 2.27406 8.45262 1.95712 8.64716 1.76258ZM2.1553 8.25457C2.28285 8.12702 2.431 8.10899 2.5083 8.10899C2.5856 8.10899 2.73376 8.12831 2.8613 8.25457C3.05584 8.44911 3.05584 8.76476 2.8613 8.9593C2.73376 9.08684 2.5856 9.10488 2.5083 9.10488C2.431 9.10488 2.28285 9.08556 2.1553 8.9593C1.96077 8.76605 1.96077 8.44911 2.1553 8.25457ZM9.35316 15.4526C9.22562 15.5801 9.07746 15.5982 9.00016 15.5982C8.92286 15.5982 8.77471 15.5788 8.64716 15.4526C8.45262 15.258 8.45262 14.9424 8.64716 14.7478C8.77471 14.6203 8.92286 14.6023 9.00016 14.6023C9.07746 14.6023 9.22562 14.6216 9.35316 14.7478C9.5477 14.9411 9.5477 15.258 9.35316 15.4526ZM13.2156 12.8231C12.3962 13.6424 11.3964 14.172 10.3439 14.4129C10.2743 14.2763 10.1828 14.1475 10.0682 14.0328C9.77316 13.7378 9.38795 13.5909 9.00145 13.5909C8.61495 13.5909 8.22974 13.7378 7.93472 14.0328C7.82006 14.1475 7.72859 14.2763 7.65773 14.4142C6.60388 14.172 5.60414 13.6424 4.78606 12.8231C3.96669 12.0037 3.43718 11.0039 3.19498 9.95133C3.33283 9.88175 3.46166 9.78899 3.57632 9.67433C4.16509 9.08556 4.16509 8.1296 3.57632 7.54083C3.46166 7.42616 3.33283 7.33469 3.19627 7.26383C3.43847 6.20996 3.96797 5.2102 4.78735 4.3921C5.60672 3.57271 6.60646 3.0432 7.65902 2.80228C7.72859 2.93884 7.82006 3.06768 7.93601 3.18234C8.23103 3.47737 8.61624 3.62425 9.00274 3.62425C9.38923 3.62425 9.77444 3.47737 10.0695 3.18234C10.1841 3.06768 10.2756 2.93884 10.3452 2.80228C11.399 3.04449 12.3988 3.574 13.2181 4.3921C14.0375 5.21149 14.567 6.21125 14.8079 7.26383C14.6714 7.3334 14.5425 7.42487 14.4279 7.54083C13.8391 8.1296 13.8391 9.08556 14.4279 9.67433C14.5425 9.78899 14.6714 9.88047 14.8079 9.95133C14.5644 11.0039 14.0349 12.0037 13.2156 12.8231ZM15.845 8.96059C15.7175 9.08813 15.5693 9.10617 15.492 9.10617C15.4147 9.10617 15.2666 9.08684 15.139 8.96059C14.9445 8.76604 14.9445 8.4504 15.139 8.25586C15.2666 8.12831 15.4147 8.11028 15.492 8.11028C15.5693 8.11028 15.7175 8.1296 15.845 8.25586C16.0396 8.44911 16.0396 8.76604 15.845 8.96059Z" fill="#1F36C7" stroke="#1F36C7" stroke-width="0.3"/>
<path d="M9.15789 4.60693L7.55263 8.21764L8.29605 8.72494L7 11.6069L10.7884 8.53881L9.86623 7.90985L11 5.86484L9.15789 4.60693Z" fill="#1F36C7"/>
</svg>
