<svg width="20" height="20" viewBox="0 0 20 20" fill="none" xmlns="http://www.w3.org/2000/svg">
<path d="M10.85 10C10.85 10.0828 10.9172 10.15 11 10.15H14.85V11.85H9.15V5.15H10.85V10ZM10 19.85C4.55984 19.85 0.15 15.4402 0.15 10C0.15 4.55984 4.55984 0.15 10 0.15C15.4402 0.15 19.85 4.55984 19.85 10C19.85 15.4402 15.4402 19.85 10 19.85ZM10 18.15C12.1615 18.15 14.2345 17.2913 15.7629 15.7629C17.2913 14.2345 18.15 12.1615 18.15 10C18.15 7.83849 17.2913 5.7655 15.7629 4.23708C14.2345 2.70866 12.1615 1.85 10 1.85C7.83849 1.85 5.7655 2.70866 4.23708 4.23708C2.70866 5.7655 1.85 7.83849 1.85 10C1.85 12.1615 2.70866 14.2345 4.23708 15.7629C5.7655 17.2913 7.83849 18.15 10 18.15Z" fill="#EEEEEE" stroke="#E6F8F4" stroke-width="0.3" stroke-linejoin="round"/>
</svg>
