<svg width="77" height="14" viewBox="0 0 77 14" fill="none" xmlns="http://www.w3.org/2000/svg">
<path d="M8.288 0.219999V2.614H3.194V5.458H8.144V7.762H3.194V10.606H8.45V13H0.458V0.219999H8.288ZM12.0689 13.18C11.6249 13.18 11.2529 13.03 10.9529 12.73C10.6529 12.418 10.5029 12.046 10.5029 11.614C10.5029 11.17 10.6529 10.798 10.9529 10.498C11.2529 10.198 11.6249 10.048 12.0689 10.048C12.5129 10.048 12.8849 10.198 13.1849 10.498C13.4849 10.798 13.6349 11.17 13.6349 11.614C13.6349 12.046 13.4849 12.418 13.1849 12.73C12.8849 13.03 12.5129 13.18 12.0689 13.18ZM20.9775 0.219999C22.2495 0.219999 23.3715 0.483999 24.3435 1.012C25.3275 1.528 26.0895 2.266 26.6295 3.226C27.1695 4.174 27.4395 5.278 27.4395 6.538C27.4395 7.81 27.1695 8.938 26.6295 9.922C26.0895 10.894 25.3275 11.65 24.3435 12.19C23.3595 12.73 22.2375 13 20.9775 13H16.0455V0.219999H20.9775ZM20.5635 10.588C21.7995 10.588 22.7775 10.234 23.4975 9.526C24.2175 8.818 24.5775 7.834 24.5775 6.574C24.5775 5.326 24.2175 4.354 23.4975 3.658C22.7895 2.962 21.8175 2.614 20.5815 2.614H18.7815V10.588H20.5635ZM30.5392 13.18C30.0952 13.18 29.7232 13.03 29.4232 12.73C29.1232 12.418 28.9732 12.046 28.9732 11.614C28.9732 11.17 29.1232 10.798 29.4232 10.498C29.7232 10.198 30.0952 10.048 30.5392 10.048C30.9832 10.048 31.3552 10.198 31.6552 10.498C31.9552 10.798 32.1052 11.17 32.1052 11.614C32.1052 12.046 31.9552 12.418 31.6552 12.73C31.3552 13.03 30.9832 13.18 30.5392 13.18ZM37.2518 0.219999V13H34.5158V0.219999H37.2518ZM41.24 13.18C40.796 13.18 40.424 13.03 40.124 12.73C39.824 12.418 39.674 12.046 39.674 11.614C39.674 11.17 39.824 10.798 40.124 10.498C40.424 10.198 40.796 10.048 41.24 10.048C41.684 10.048 42.056 10.198 42.356 10.498C42.656 10.798 42.806 11.17 42.806 11.614C42.806 12.046 42.656 12.418 42.356 12.73C42.056 13.03 41.684 13.18 41.24 13.18ZM53.4426 2.596H50.1486V13H47.4126V2.596H44.0826V0.219999H53.4426V2.596ZM56.3001 13.18C55.8561 13.18 55.4841 13.03 55.1841 12.73C54.8841 12.418 54.7341 12.046 54.7341 11.614C54.7341 11.17 54.8841 10.798 55.1841 10.498C55.4841 10.198 55.8561 10.048 56.3001 10.048C56.7441 10.048 57.1161 10.198 57.4161 10.498C57.7161 10.798 57.8661 11.17 57.8661 11.614C57.8661 12.046 57.7161 12.418 57.4161 12.73C57.1161 13.03 56.7441 13.18 56.3001 13.18ZM71.1127 0.219999V13H68.3767V7.816H63.0127V13H60.2767V0.219999H63.0127V5.422H68.3767V0.219999H71.1127ZM75.0868 13.18C74.6428 13.18 74.2708 13.03 73.9708 12.73C73.6708 12.418 73.5208 12.046 73.5208 11.614C73.5208 11.17 73.6708 10.798 73.9708 10.498C74.2708 10.198 74.6428 10.048 75.0868 10.048C75.5308 10.048 75.9028 10.198 76.2028 10.498C76.5028 10.798 76.6528 11.17 76.6528 11.614C76.6528 12.046 76.5028 12.418 76.2028 12.73C75.9028 13.03 75.5308 13.18 75.0868 13.18Z" fill="#EEEEEE"/>
</svg>
