<svg width="18" height="18" viewBox="0 0 18 18" fill="none" xmlns="http://www.w3.org/2000/svg">
<path d="M8.8887 1.95763C5.11241 1.95763 2.04015 5.03036 2.04015 8.80556C2.04015 12.5823 5.11241 15.655 8.8887 15.655C12.6648 15.655 15.7371 12.5823 15.7371 8.80556C15.7371 5.03036 12.6648 1.95763 8.8887 1.95763ZM8.8887 17.2509C4.22486 17.2509 0.444336 13.4694 0.444336 8.80556C0.444336 4.14171 4.22486 0.361816 8.8887 0.361816C13.5522 0.361816 17.3329 4.14171 17.3329 8.80556C17.3329 13.4694 13.5522 17.2509 8.8887 17.2509Z" fill="#FF9998"/>
<path d="M7.79004 3.55652H9.96473V10.5108H7.79004V3.55652Z" fill="#FF9998"/>
<path d="M8.87843 14.4034C8.45773 14.4034 8.10977 14.2735 7.83457 14.0122C7.55906 13.7509 7.42139 13.4177 7.42139 13.0125C7.42139 12.6057 7.55906 12.2756 7.83457 12.0221C8.10977 11.7687 8.45773 11.642 8.87843 11.642C9.29866 11.642 9.65037 11.7718 9.93308 12.0331C10.2158 12.2944 10.3572 12.6198 10.3572 13.0125C10.3572 13.4177 10.2158 13.7509 9.93308 14.0122C9.65037 14.2735 9.29866 14.4034 8.87843 14.4034Z" fill="#FF9998"/>
</svg>
