<svg width="20" height="20" viewBox="0 0 20 20" fill="none" xmlns="http://www.w3.org/2000/svg">
<path d="M10.0001 0C4.47668 0 0.00012207 4.47841 0.00012207 10C0.00012207 15.5234 4.47668 20 10.0001 20C15.5236 20 20.0001 15.5234 20.0001 10C20.0001 4.47656 15.5236 0 10.0001 0ZM10.0001 18.1101C5.52727 18.1101 1.89006 14.471 1.89006 10C1.89006 5.529 5.52727 1.88994 10.0001 1.88994C14.473 1.88994 18.1102 5.52714 18.1102 10C18.1102 14.4729 14.473 18.1101 10.0001 18.1101Z" fill="#1F36C7"/>
<path d="M11.2748 7.98047H8.69934V16.2165H11.2748V7.98047Z" fill="#1F36C7"/>
<path d="M9.98718 3.37012C9.48875 3.37012 9.07741 3.52391 8.75131 3.83334C8.4252 4.14277 8.26215 4.53743 8.26215 5.01733C8.26215 5.49908 8.4252 5.88818 8.75131 6.18835C9.07741 6.48852 9.48875 6.6386 9.98718 6.6386C10.4856 6.6386 10.9006 6.48481 11.236 6.17538C11.5714 5.86595 11.7381 5.48055 11.7381 5.01733C11.7381 4.53743 11.5714 4.14092 11.236 3.83334C10.9006 3.52576 10.4856 3.37012 9.98718 3.37012Z" fill="#1F36C7"/>
</svg>
