<svg width="1440" height="1024" viewBox="0 0 1440 1024" fill="none" xmlns="http://www.w3.org/2000/svg">
<path d="M0 1024H1440V-8.9705e-06H0V1024Z" fill="black"/>
<path d="M1774.09 3867.57C1874.14 3552.62 1999.41 3331.78 2204.42 2991.51C1999.01 2884.86 1453.24 2658.32 1452.91 2286.62C1452.52 1851.95 1991.21 1511.34 2102.84 1511.24C2152.89 1511.19 2165.64 1555.25 2165.72 1637.3C2165.92 1863.93 2059.61 2229.36 2059.79 2424.79C2059.95 2601 2172.99 2771.14 2273.22 2771.06C2379.86 2770.95 2674.02 2392.78 2673.69 2021.06C2673.09 1353.04 2090.02 1152.21 1909.47 1152.38C1740.27 1152.53 1433.3 1429.86 712.705 1430.52C-633.617 1431.74 -942.041 90.5982 -942.571 -495.432C-942.589 -520.629 -936.498 -526.999 -930.192 -526.999C-898.861 -527.028 -766.959 -363.16 -340.741 -363.543C-121.308 -363.74 79.218 -420.7 398.979 -420.99C1149.36 -421.672 1482.33 101.102 1946.97 768.074C2227.64 944.016 2898.78 1227.12 2899.5 2027.1C2900.14 2732.65 2154.34 3123.92 1974.68 3879.97C2261.64 3848.37 2430.51 3331.38 2725.05 3331.11C2875.6 3330.98 2944.7 3450.8 2944.88 3639.94C2945.12 3916.93 2788.67 4332.95 2487.95 4591.4C2494.24 4566.13 2494.21 4534.62 2494.17 4496.72C2494.01 4320.52 2424.92 4068.91 2224.19 4069.09C1912.1 4069.37 1812.07 4409.43 1636.82 4692.84C1454.5 4050.74 1209.45 3471.18 770.83 3118.83C326.877 2760.25 -438.084 2956.01 -438.679 2301.03C-438.837 2124.47 -326.168 1872.54 -326.354 1670.97C-326.41 1601.73 -339.03 1538.67 -376.853 1488.22C225.414 1714.7 12.4999 2117.68 382.974 2533.16C613.753 2797.83 1253.02 3049.14 1623.91 4138.48C1630.04 4107.05 1636.22 4025.38 1636.17 3968.56C1635.33 3036.17 407.526 2123.71 300.707 1745.79C1013.52 1827.13 1139.14 2003.58 1478.58 2947.93C1547.61 3143.44 1773.88 3628.4 1774.09 3867.57ZM1608.42 812.473C1608.3 680.248 1275.79 668.08 1244.24 296.33C1237.78 239.668 1219.02 139.122 1149.86 139.188C1037.13 139.291 1125.11 485.581 999.786 485.694C711.859 485.955 617.427 -81.013 510.933 -80.9197C485.692 -80.9007 455.756 -61.9886 455.821 13.697C455.886 82.9943 468.636 127.169 468.711 208.756C468.775 290.737 449.822 347.473 374.706 347.539C205.363 347.688 54.5731 -49.0066 -89.6974 -48.8753C-121.029 -48.8568 -152.23 -29.8328 -152.202 1.61237C-152.128 77.2509 -26.7182 215.5 -26.653 284.947C-26.5134 436.234 -434.02 354.563 -433.908 480.68C-433.862 537.36 -377.699 556.029 -302.425 555.964C-170.524 555.842 36.2523 499.293 142.756 499.2C205.503 499.143 299.6 511.583 299.674 593.218C299.758 681.437 74.2056 794.936 74.2704 876.889C74.3078 914.769 111.963 933.297 143.146 933.269C312.527 933.12 611.81 637.13 824.891 636.934C862.379 636.896 956.16 655.678 956.216 712.451C956.291 794.141 743.646 939.021 743.757 1058.75C743.786 1090.31 762.786 1128.15 800.255 1128.11C912.553 1128.01 1062.66 831.947 1275.94 831.75C1357.51 831.676 1476.71 863.065 1539.45 863.009C1589.65 862.962 1608.43 831.451 1608.42 812.473Z" fill="#0055D8"/>
</svg>
