<svg width="660" height="660" viewBox="0 0 660 660" fill="none" xmlns="http://www.w3.org/2000/svg">
<path d="M116.16 506.88C234.247 568.577 425.726 568.577 543.84 506.88C661.954 445.183 661.94 345.154 543.84 283.457C425.74 221.76 234.274 221.76 116.16 283.457C-1.95358 345.154 -1.92718 445.236 116.16 506.88Z" fill="#7705BC" fill-opacity="0.06"/>
<path d="M109.454 403.669C126.207 403.669 139.788 397.198 139.788 389.215C139.788 381.232 126.207 374.761 109.454 374.761C92.7017 374.761 79.1208 381.232 79.1208 389.215C79.1208 397.198 92.7017 403.669 109.454 403.669Z" fill="#EBEBEB"/>
<path d="M455.611 422.968C477.97 422.968 496.096 414.327 496.096 403.669C496.096 393.011 477.97 384.371 455.611 384.371C433.252 384.371 415.127 393.011 415.127 403.669C415.127 414.327 433.252 422.968 455.611 422.968Z" fill="#EBEBEB"/>
<path d="M576.642 324.271C576.642 324.271 579.77 314.609 589.947 304.313C594.435 299.772 597.366 296.604 596.429 293.898C595.584 291.509 592.733 290.268 588.654 292.195C582.859 294.941 578.952 300.036 576.642 310.266V324.271Z" fill="#BA68C8"/>
<path opacity="0.1" d="M576.642 324.271C576.642 324.271 579.77 314.609 589.947 304.313C594.435 299.772 597.366 296.604 596.429 293.898C595.584 291.509 592.733 290.268 588.654 292.195C582.859 294.941 578.952 300.036 576.642 310.266V324.271Z" fill="black"/>
<path d="M575.995 318.199H575.876C575.749 318.165 575.64 318.082 575.574 317.969C575.507 317.855 575.488 317.72 575.52 317.592C579.15 303.574 588.535 294.888 592.508 292.882C592.628 292.826 592.764 292.818 592.89 292.859C593.015 292.901 593.119 292.989 593.181 293.106C593.237 293.224 593.245 293.358 593.203 293.481C593.161 293.604 593.073 293.707 592.957 293.766C589.116 295.706 580.021 304.154 576.483 317.843C576.452 317.947 576.387 318.039 576.299 318.103C576.211 318.167 576.104 318.201 575.995 318.199Z" fill="white"/>
<path d="M576.642 336.27C576.642 336.27 580.985 327.756 586.225 323.228C591.465 318.701 598.197 314.081 592.495 310.543C586.793 307.006 577.407 313.949 576.655 320.8L576.642 336.27Z" fill="#BA68C8"/>
<path d="M575.995 330.211H575.889C575.763 330.18 575.653 330.1 575.584 329.989C575.515 329.878 575.492 329.745 575.52 329.617C577.988 319.057 586.845 313.091 589.789 312.101C589.91 312.076 590.037 312.096 590.144 312.159C590.251 312.221 590.331 312.321 590.369 312.439C590.406 312.557 590.399 312.685 590.348 312.798C590.297 312.911 590.206 313.001 590.093 313.051C587.453 313.949 578.82 319.823 576.483 329.842C576.454 329.949 576.391 330.043 576.302 330.11C576.214 330.176 576.106 330.212 575.995 330.211Z" fill="white"/>
<path d="M190.595 421.846C190.595 421.846 188.588 417.384 180.206 415.496C172.049 413.662 167.996 415.496 162.492 414.546C156.987 413.596 158.426 403.313 173.237 404.382C186.793 405.359 190.595 416.024 190.595 416.024V421.846Z" fill="#BA68C8"/>
<path d="M191.4 419.39C191.304 419.388 191.211 419.358 191.131 419.304C191.051 419.251 190.989 419.175 190.951 419.087C189.631 415.932 184.747 410.784 177.87 409.213C169.33 407.273 164.789 409.213 164.749 409.213C164.631 409.253 164.502 409.247 164.388 409.198C164.274 409.148 164.182 409.057 164.131 408.943C164.08 408.83 164.073 408.701 164.112 408.583C164.15 408.464 164.232 408.364 164.34 408.302C164.538 408.223 169.237 406.177 178.081 408.197C185.724 409.939 190.595 415.536 191.862 418.664C191.888 418.724 191.902 418.788 191.902 418.853C191.903 418.919 191.891 418.983 191.866 419.043C191.841 419.104 191.805 419.158 191.759 419.204C191.713 419.25 191.658 419.287 191.598 419.311L191.4 419.39Z" fill="white"/>
<path d="M190.595 416.764C188.924 413.772 186.785 411.067 184.259 408.751C176.339 401.069 165.779 398.653 160.499 394.456C154.691 389.928 161.726 384.701 169.197 385.031C173.474 385.229 177.989 388.054 180.47 390.086C189.209 397.228 190.647 408.751 190.647 408.751L190.595 416.764Z" fill="#BA68C8"/>
<path opacity="0.5" d="M190.595 416.764C188.924 413.772 186.785 411.067 184.259 408.751C176.339 401.069 165.779 398.653 160.499 394.456C154.691 389.928 161.726 384.701 169.197 385.031C173.474 385.229 177.989 388.054 180.47 390.086C189.209 397.228 190.647 408.751 190.647 408.751L190.595 416.764Z" fill="white"/>
<path d="M191.4 415.985C191.282 415.983 191.168 415.94 191.079 415.863C190.989 415.785 190.93 415.679 190.912 415.562C189.871 410.013 187.354 404.846 183.625 400.607C177.395 393.518 166.742 389.717 166.624 389.677C166.503 389.632 166.404 389.543 166.348 389.428C166.291 389.312 166.281 389.179 166.32 389.057C166.341 388.995 166.374 388.937 166.417 388.888C166.46 388.839 166.513 388.799 166.572 388.771C166.631 388.742 166.696 388.726 166.761 388.723C166.827 388.72 166.892 388.73 166.954 388.753C167.402 388.898 177.962 392.713 184.364 399.947C188.247 404.321 190.854 409.677 191.902 415.43C191.911 415.496 191.907 415.562 191.89 415.626C191.872 415.689 191.843 415.749 191.802 415.8C191.761 415.852 191.711 415.895 191.653 415.927C191.595 415.959 191.531 415.978 191.466 415.985H191.4Z" fill="white"/>
<path d="M371.751 498.802C371.751 498.802 373.995 494.446 382.47 493.007C390.707 491.608 394.653 493.601 400.211 493.007C405.768 492.413 404.87 481.998 390.02 482.275C376.437 482.526 372.068 492.967 372.068 492.967L371.751 498.802Z" fill="#BA68C8"/>
<path opacity="0.1" d="M371.751 498.802C371.751 498.802 373.995 494.446 382.47 493.007C390.707 491.608 394.653 493.601 400.211 493.007C405.768 492.413 404.87 481.998 390.02 482.275C376.437 482.526 372.068 492.967 372.068 492.967L371.751 498.802Z" fill="black"/>
<path d="M371.105 496.716C371.002 496.712 370.901 496.68 370.814 496.624C370.761 496.587 370.716 496.54 370.681 496.485C370.646 496.43 370.622 496.369 370.611 496.305C370.6 496.241 370.602 496.176 370.616 496.113C370.631 496.05 370.658 495.99 370.696 495.937C373.85 491.423 379.592 488.017 386.074 486.882C394.403 485.39 399.274 488.03 399.485 488.202C399.541 488.233 399.591 488.275 399.631 488.326C399.671 488.376 399.701 488.434 399.719 488.496C399.736 488.558 399.742 488.622 399.734 488.686C399.727 488.75 399.707 488.812 399.676 488.869C399.645 488.925 399.603 488.975 399.553 489.015C399.502 489.055 399.444 489.085 399.383 489.102C399.321 489.12 399.256 489.126 399.192 489.118C399.128 489.111 399.066 489.091 399.01 489.06C399.01 489.06 394.218 486.486 386.245 487.912C380.028 489.02 374.51 492.254 371.514 496.558C371.461 496.612 371.397 496.654 371.327 496.681C371.256 496.709 371.18 496.72 371.105 496.716Z" fill="white"/>
<path d="M372.345 492.69C374.262 490.279 376.44 488.087 378.84 486.156C387.195 478.922 397.769 477.748 403.365 473.84C409.411 469.63 402.666 464.033 395.181 463.967C390.905 463.967 386.245 466.514 383.645 468.415C378.103 472.567 373.959 478.309 371.765 484.876L372.345 492.69Z" fill="#BA68C8"/>
<path opacity="0.5" d="M372.345 492.69C374.262 490.279 376.44 488.087 378.84 486.156C387.195 478.922 397.769 477.748 403.365 473.84C409.411 469.63 402.666 464.033 395.181 463.967C390.905 463.967 386.245 466.514 383.645 468.415C378.103 472.567 373.959 478.309 371.765 484.876L372.345 492.69Z" fill="white"/>
<path d="M371.105 492.584H370.92C370.799 492.539 370.699 492.451 370.641 492.336C370.582 492.221 370.568 492.088 370.603 491.964C372.666 486.298 375.926 481.143 380.16 476.85C384.753 472.113 390.719 468.941 397.214 467.782C397.278 467.772 397.342 467.776 397.404 467.793C397.466 467.809 397.524 467.838 397.575 467.877C397.626 467.917 397.668 467.966 397.699 468.022C397.73 468.078 397.749 468.14 397.755 468.204C397.765 468.269 397.761 468.336 397.743 468.399C397.726 468.463 397.697 468.522 397.656 468.574C397.615 468.626 397.564 468.669 397.507 468.701C397.449 468.732 397.385 468.752 397.32 468.758C391.066 469.945 385.324 473.012 380.859 477.55C376.758 481.725 373.607 486.736 371.619 492.241C371.584 492.348 371.515 492.439 371.421 492.502C371.328 492.564 371.216 492.593 371.105 492.584Z" fill="white"/>
<path d="M244.2 422.954V323.228H190.595V422.968C190.595 426.928 193.235 430.888 198.515 433.897C208.983 439.943 225.958 439.943 236.425 433.897C241.705 430.874 244.266 426.928 244.279 422.968L244.2 422.954Z" fill="#37474F"/>
<path d="M198.449 334.844C187.968 328.799 187.968 319.004 198.449 312.946C208.93 306.887 225.892 306.9 236.359 312.946C246.827 318.991 246.827 328.786 236.359 334.844C225.892 340.903 208.917 340.877 198.449 334.844Z" fill="#455A64"/>
<path d="M308.55 460.112V387.512H254.932V460.112C254.932 464.072 257.572 468.032 262.852 471.042C273.319 477.088 290.294 477.088 300.762 471.042C306.042 468.032 308.616 464.072 308.616 460.112H308.55Z" fill="#37474F"/>
<path d="M262.786 399.142C252.318 393.096 252.318 383.302 262.786 377.243C273.253 371.184 290.229 371.197 300.696 377.243C311.164 383.288 311.177 393.083 300.696 399.142C290.215 405.2 273.24 405.24 262.786 399.142Z" fill="#455A64"/>
<path d="M372.9 497.257V440.88H319.282V497.27C319.282 501.23 321.922 505.19 327.202 508.213C337.669 514.259 354.645 514.259 365.112 508.213C370.392 505.19 372.953 501.23 372.966 497.27L372.9 497.257Z" fill="#37474F"/>
<path d="M346.091 457.01C360.897 457.01 372.9 450.078 372.9 441.527C372.9 432.975 360.897 426.043 346.091 426.043C331.285 426.043 319.282 432.975 319.282 441.527C319.282 450.078 331.285 457.01 346.091 457.01Z" fill="#455A64"/>
<path d="M187.163 458.119L174.504 450.82L181.513 441.738C182.411 440.576 181.988 439.943 180.576 440.299L163.786 444.629L151.127 437.316C150.064 436.776 148.888 436.494 147.695 436.494C146.502 436.494 145.326 436.776 144.263 437.316L124.318 448.8C122.417 449.896 122.417 451.664 124.318 452.76L160.354 473.563C161.417 474.103 162.593 474.385 163.786 474.385C164.978 474.385 166.154 474.103 167.218 473.563L187.163 462.04C189.05 460.984 189.05 459.215 187.163 458.119Z" fill="#BA68C8"/>
<path d="M166.914 453.644C167.12 453.624 167.328 453.624 167.534 453.644C167.739 453.67 167.937 453.738 168.115 453.842L169.924 454.885C170.046 454.944 170.14 455.048 170.188 455.176C170.188 455.281 170.188 455.374 170.003 455.44C169.96 455.451 169.914 455.451 169.871 455.44C169.806 455.455 169.738 455.455 169.673 455.44L144.593 457.42H143.88C143.674 457.389 143.477 457.317 143.299 457.208L141.491 456.166C141.369 456.106 141.274 456.002 141.227 455.875C141.227 455.77 141.227 455.677 141.412 455.611C141.455 455.599 141.5 455.599 141.544 455.611H141.742L166.914 453.644ZM158.836 451.968C158.299 452.326 157.739 452.648 157.159 452.932C156.691 453.169 156.2 453.359 155.694 453.499C155.163 453.633 154.618 453.7 154.07 453.697C152.849 453.7 151.649 453.372 150.599 452.747C150.098 452.501 149.649 452.161 149.279 451.744C149.038 451.469 148.903 451.118 148.896 450.754C148.901 450.409 149.027 450.077 149.252 449.816C149.515 449.476 149.837 449.185 150.203 448.958C150.453 448.777 150.713 448.61 150.982 448.457C151.232 448.312 151.536 448.153 151.866 447.995C152.341 447.755 152.841 447.57 153.358 447.44C154.454 447.168 155.601 447.168 156.697 447.44C157.307 447.606 157.893 447.85 158.44 448.166C158.916 448.415 159.338 448.756 159.68 449.17C159.924 449.443 160.064 449.793 160.076 450.16C160.059 450.502 159.935 450.83 159.72 451.097C159.478 451.436 159.179 451.731 158.836 451.968ZM161.33 462.29C160.819 462.672 160.281 463.016 159.72 463.32C159.248 463.557 158.753 463.743 158.242 463.874C157.713 464.02 157.166 464.091 156.618 464.086C156.034 464.083 155.452 464.003 154.889 463.848C154.278 463.693 153.691 463.453 153.146 463.135C152.675 462.879 152.255 462.539 151.906 462.132C151.662 461.854 151.526 461.498 151.523 461.129C151.533 460.788 151.654 460.459 151.866 460.192C152.135 459.855 152.461 459.569 152.83 459.347C153.075 459.158 153.335 458.99 153.608 458.845C153.893 458.672 154.188 458.518 154.493 458.383C154.963 458.144 155.459 457.958 155.971 457.829C156.503 457.698 157.047 457.628 157.595 457.618C158.812 457.617 160.007 457.945 161.053 458.568C161.557 458.809 162.006 459.151 162.373 459.571C162.606 459.838 162.735 460.18 162.735 460.535C162.735 460.889 162.606 461.231 162.373 461.498C162.073 461.82 161.72 462.087 161.33 462.29ZM152.922 450.41C152.66 450.559 152.444 450.778 152.302 451.044C152.302 451.229 152.302 451.414 152.684 451.598C152.97 451.771 153.302 451.85 153.635 451.823C154.018 451.762 154.389 451.637 154.73 451.453C155.231 451.213 155.712 450.935 156.169 450.622C156.438 450.477 156.658 450.257 156.803 449.988C156.803 449.803 156.737 449.618 156.42 449.434C156.131 449.259 155.792 449.185 155.456 449.222C155.077 449.276 154.711 449.397 154.374 449.579C153.87 449.799 153.384 450.059 152.922 450.358V450.41ZM155.43 460.733C155.161 460.877 154.941 461.098 154.796 461.366C154.796 461.538 154.796 461.723 155.179 461.908C155.465 462.092 155.805 462.171 156.143 462.132C156.52 462.072 156.886 461.952 157.225 461.776C157.731 461.539 158.217 461.261 158.677 460.944C158.943 460.8 159.159 460.579 159.298 460.31C159.298 460.126 159.298 459.941 158.915 459.756C158.63 459.583 158.297 459.504 157.964 459.532C157.585 459.591 157.218 459.716 156.882 459.901C156.378 460.121 155.892 460.382 155.43 460.68V460.733Z" fill="white"/>
<path d="M256.885 498.353L244.2 491.04L251.209 481.972C252.094 480.81 251.671 480.163 250.259 480.533L233.469 484.849L220.81 477.55C219.749 477.009 218.575 476.728 217.384 476.728C216.194 476.728 215.02 477.009 213.959 477.55L194.04 489.06C192.153 490.156 192.153 491.938 194.04 493.02L230.076 513.836C231.141 514.371 232.317 514.649 233.508 514.649C234.7 514.649 235.875 514.371 236.94 513.836L256.885 502.313C258.786 501.217 258.786 499.448 256.885 498.353Z" fill="#BA68C8"/>
<path d="M236.637 493.878H237.27C237.475 493.911 237.673 493.982 237.851 494.089L239.646 495.132C239.805 495.224 239.897 495.317 239.91 495.422C239.923 495.528 239.91 495.607 239.739 495.686C239.695 495.696 239.65 495.696 239.607 495.686H239.409L214.329 497.666C214.118 497.687 213.906 497.687 213.695 497.666C213.489 497.637 213.291 497.565 213.114 497.455L211.319 496.426C211.161 496.333 211.068 496.228 211.055 496.135C211.051 496.077 211.065 496.018 211.096 495.969C211.127 495.919 211.172 495.88 211.227 495.858H211.359H211.557L236.637 493.878ZM228.558 492.202C228.028 492.563 227.472 492.885 226.895 493.165C226.423 493.402 225.928 493.588 225.417 493.72C224.888 493.864 224.341 493.935 223.793 493.931C223.209 493.928 222.627 493.849 222.064 493.693C221.452 493.538 220.866 493.298 220.321 492.98C219.847 492.724 219.422 492.384 219.067 491.977C218.828 491.711 218.696 491.365 218.696 491.007C218.696 490.649 218.828 490.303 219.067 490.037C219.334 489.704 219.656 489.418 220.018 489.192C220.267 489.009 220.527 488.842 220.797 488.69C221.087 488.52 221.387 488.366 221.694 488.228C222.165 487.989 222.661 487.803 223.173 487.674C224.027 487.456 224.915 487.41 225.787 487.537C226.659 487.664 227.498 487.961 228.255 488.413C228.732 488.666 229.157 489.006 229.509 489.416C229.751 489.69 229.887 490.041 229.891 490.406C229.881 490.75 229.756 491.08 229.535 491.344C229.265 491.687 228.933 491.978 228.558 492.202ZM231.066 502.524C230.53 502.883 229.97 503.205 229.39 503.488C228.924 503.727 228.432 503.913 227.925 504.042C227.394 504.176 226.848 504.242 226.301 504.24C225.079 504.243 223.879 503.914 222.829 503.29C222.353 503.041 221.927 502.705 221.575 502.3C221.332 502.022 221.196 501.666 221.193 501.296C221.208 500.954 221.333 500.625 221.549 500.359C221.815 500.022 222.136 499.732 222.499 499.501C222.763 499.316 223.027 499.158 223.278 499C223.529 498.841 223.833 498.696 224.163 498.538C224.638 498.298 225.138 498.112 225.654 497.983C226.187 497.862 226.731 497.796 227.278 497.785C227.857 497.783 228.434 497.859 228.994 498.01C229.606 498.167 230.193 498.411 230.736 498.736C231.214 498.988 231.639 499.328 231.99 499.739C232.229 500.003 232.361 500.346 232.361 500.702C232.361 501.058 232.229 501.402 231.99 501.666C231.732 502.001 231.42 502.291 231.066 502.524ZM222.658 490.644C222.389 490.789 222.169 491.009 222.024 491.278C222.024 491.449 222.09 491.634 222.407 491.819C222.692 492.003 223.033 492.082 223.371 492.043C223.748 491.981 224.113 491.861 224.453 491.687C224.962 491.45 225.448 491.168 225.905 490.842C226.169 490.701 226.385 490.485 226.525 490.222C226.525 490.037 226.459 489.852 226.143 489.667C225.86 489.488 225.525 489.409 225.192 489.443C224.808 489.501 224.438 489.626 224.097 489.812C223.597 490.032 223.115 490.293 222.658 490.591V490.644ZM225.153 500.966C224.894 501.114 224.68 501.329 224.532 501.587C224.532 501.772 224.598 501.956 224.915 502.141C225.198 502.32 225.532 502.399 225.865 502.366C226.247 502.306 226.617 502.186 226.961 502.009C227.46 501.763 227.941 501.481 228.4 501.164C228.664 501.02 228.883 500.805 229.033 500.544C229.099 500.359 229.033 500.174 228.651 499.99C228.363 499.811 228.024 499.732 227.687 499.765C227.31 499.827 226.945 499.947 226.605 500.122C226.104 500.354 225.619 500.618 225.153 500.914V500.966Z" fill="white"/>
<path d="M326.555 538.56L313.896 531.26L320.918 522.166C321.803 521.017 321.38 520.37 319.968 520.74L303.178 525.056L290.519 517.757C289.455 517.216 288.28 516.935 287.087 516.935C285.894 516.935 284.718 517.216 283.655 517.757L263.71 529.32C261.822 530.416 261.822 532.198 263.71 533.28L299.746 554.096C300.811 554.631 301.986 554.909 303.178 554.909C304.369 554.909 305.544 554.631 306.61 554.096L326.555 542.52C328.456 541.464 328.456 539.695 326.555 538.56Z" fill="#BA68C8"/>
<path d="M306.306 534.125H306.926C307.132 534.156 307.33 534.227 307.507 534.336L309.316 535.379C309.474 535.471 309.566 535.564 309.58 535.669C309.593 535.775 309.58 535.854 309.408 535.933H309.276H309.078L283.998 537.913C283.792 537.933 283.584 537.933 283.378 537.913C283.171 537.886 282.973 537.814 282.797 537.702L281.002 536.672C280.843 536.58 280.751 536.474 280.738 536.382C280.733 536.324 280.747 536.265 280.778 536.215C280.809 536.166 280.855 536.127 280.909 536.105H281.041C281.106 536.09 281.174 536.09 281.239 536.105L306.306 534.125ZM298.228 532.448C297.694 532.812 297.134 533.135 296.551 533.412C296.085 533.651 295.594 533.837 295.086 533.966C294.557 534.111 294.011 534.182 293.462 534.178C292.874 534.175 292.288 534.095 291.72 533.94C291.113 533.786 290.53 533.546 289.991 533.227C289.516 532.97 289.091 532.631 288.737 532.224C288.493 531.946 288.357 531.59 288.354 531.221C288.369 530.878 288.494 530.55 288.71 530.284C288.98 529.949 289.301 529.66 289.661 529.426C289.925 529.241 290.189 529.082 290.44 528.937C290.69 528.792 290.994 528.634 291.324 528.462C292.295 527.986 293.358 527.73 294.439 527.71C295.656 527.714 296.85 528.042 297.898 528.66C298.375 528.912 298.8 529.253 299.152 529.663C299.39 529.939 299.526 530.289 299.534 530.653C299.517 530.995 299.393 531.323 299.178 531.59C298.915 531.931 298.593 532.222 298.228 532.448ZM300.722 542.771C300.189 543.127 299.634 543.449 299.059 543.734C298.592 543.971 298.101 544.157 297.594 544.289C296.49 544.57 295.332 544.57 294.228 544.289C293.62 544.129 293.038 543.885 292.499 543.563C291.995 543.321 291.546 542.98 291.179 542.56C290.934 542.288 290.798 541.935 290.796 541.57C290.804 541.228 290.924 540.898 291.139 540.632C291.414 540.298 291.739 540.009 292.103 539.774C292.353 539.593 292.613 539.426 292.882 539.273C293.132 539.128 293.436 538.969 293.766 538.811C294.729 538.315 295.798 538.057 296.881 538.058C297.461 538.057 298.038 538.132 298.597 538.283C299.205 538.443 299.787 538.687 300.326 539.009C300.83 539.25 301.279 539.592 301.646 540.012C301.891 540.284 302.027 540.636 302.029 541.002C302.022 541.344 301.901 541.673 301.686 541.939C301.416 542.27 301.09 542.552 300.722 542.771ZM292.314 530.891C292.052 531.039 291.836 531.259 291.694 531.524C291.694 531.696 291.76 531.881 292.076 532.066C292.36 532.243 292.694 532.322 293.027 532.29C293.409 532.23 293.779 532.11 294.122 531.934C294.63 531.694 295.116 531.412 295.574 531.089C295.838 530.948 296.054 530.732 296.195 530.468C296.261 530.284 296.195 530.099 295.812 529.914C295.524 529.736 295.186 529.657 294.848 529.69C294.469 529.751 294.103 529.876 293.766 530.059C293.263 530.282 292.778 530.542 292.314 530.838V530.891ZM294.822 541.213C294.561 541.362 294.343 541.576 294.188 541.834C294.188 542.018 294.188 542.203 294.584 542.388C294.867 542.567 295.202 542.646 295.535 542.612C295.912 542.553 296.278 542.432 296.617 542.256C297.121 542.01 297.606 541.727 298.069 541.411C298.333 541.267 298.553 541.052 298.703 540.791C298.773 540.606 298.641 540.421 298.307 540.236C298.024 540.057 297.689 539.978 297.356 540.012C296.979 540.072 296.613 540.192 296.274 540.368C295.771 540.61 295.285 540.888 294.822 541.2V541.213Z" fill="white"/>
<path d="M506.946 320.8L485.496 308.418V246.497L506.946 258.878V320.8Z" fill="#37474F"/>
<path d="M506.946 320.8L528.396 308.418V246.497L506.946 258.878V320.8Z" fill="#455A64"/>
<path d="M485.496 246.497L506.946 258.878L528.396 246.497L506.946 234.115L485.496 246.497Z" fill="#455A64"/>
<path d="M458.687 292.934L437.237 280.553V156.724L458.687 169.105V292.934Z" fill="#37474F"/>
<path d="M458.687 292.934L480.137 280.553V156.724L458.687 169.105V292.934Z" fill="#455A64"/>
<path d="M437.237 156.724L458.687 169.105L480.137 156.724L458.687 144.342L437.237 156.724Z" fill="#455A64"/>
<path d="M410.428 265.069L388.978 252.688V209.352L410.428 221.734V265.069Z" fill="#37474F"/>
<path d="M410.428 265.069L431.878 252.688V209.352L410.428 221.734V265.069Z" fill="#455A64"/>
<path d="M388.978 209.352L410.428 221.734L431.878 209.352L410.428 196.97L388.978 209.352Z" fill="#455A64"/>
<path d="M555.205 348.665L533.755 336.27V218.645L555.192 231.026L555.205 348.665Z" fill="#37474F"/>
<path d="M555.192 348.665L576.642 336.27V218.645L555.192 231.026V348.665Z" fill="#455A64"/>
<path d="M533.755 218.645L555.192 231.026L576.642 218.645L555.205 206.25L533.755 218.645Z" fill="#455A64"/>
<g opacity="0.3">
<path d="M405.24 339.676L405.016 202.554C404.969 201.76 404.737 200.989 404.338 200.301C403.939 199.613 403.385 199.028 402.719 198.594L240.94 105.6C239.62 104.874 238.656 105.468 238.656 106.92L238.92 243.989C238.963 244.783 239.194 245.556 239.593 246.244C239.992 246.933 240.549 247.517 241.217 247.949L403.009 341.009C404.237 341.735 405.24 341.141 405.24 339.676Z" fill="white"/>
</g>
<path d="M403.999 341.972C403.533 341.954 403.079 341.818 402.679 341.576L240.887 248.516C240.115 248.03 239.471 247.365 239.012 246.576C238.552 245.788 238.29 244.9 238.247 243.989L237.996 106.92C237.941 106.518 238.006 106.109 238.184 105.744C238.362 105.379 238.645 105.076 238.996 104.872C239.347 104.668 239.75 104.574 240.155 104.6C240.56 104.626 240.948 104.772 241.27 105.019L403.062 198C403.833 198.488 404.475 199.154 404.934 199.942C405.394 200.73 405.657 201.617 405.702 202.528L405.926 339.649C405.958 340.049 405.883 340.451 405.709 340.812C405.535 341.174 405.269 341.483 404.936 341.708C404.653 341.879 404.33 341.97 403.999 341.972ZM239.923 105.89C239.837 105.867 239.746 105.867 239.659 105.89C239.53 106.001 239.432 106.143 239.372 106.302C239.312 106.461 239.293 106.633 239.316 106.801L239.54 243.923C239.578 244.616 239.781 245.291 240.132 245.89C240.484 246.49 240.973 246.996 241.56 247.368L403.352 340.428C403.748 340.652 404.092 340.718 404.303 340.586C404.514 340.454 404.646 340.138 404.646 339.676L404.422 202.554C404.379 201.878 404.181 201.221 403.842 200.635C403.503 200.049 403.033 199.549 402.468 199.175L240.61 106.115C240.404 105.983 240.167 105.906 239.923 105.89Z" fill="#BA68C8"/>
<path d="M389.875 309.421C385.585 306.372 383.077 303.613 381.374 282.414L381.229 280.606C379.632 260.687 378.589 247.54 369.508 242.114C365.152 239.474 361.667 242.114 357.984 244.979C354.644 247.526 351.212 250.14 347.345 247.936C340.547 243.976 339.425 236.135 337.313 221.826C337.049 220.057 336.785 218.196 336.481 216.242C336.019 213.193 335.623 210.355 335.254 207.689C333.168 192.667 331.901 183.586 324.218 178.952C323.462 178.416 322.59 178.064 321.674 177.924C320.757 177.785 319.82 177.861 318.938 178.147C313.117 180.18 308.563 192.496 303.745 205.55C303.376 206.514 303.019 207.53 302.636 208.547C299.138 218.17 295.178 229.086 289.7 231.106C288.926 231.389 288.097 231.494 287.276 231.411C286.456 231.329 285.664 231.062 284.962 230.63C279.51 227.542 278.533 219.094 277.596 210.91C276.659 202.726 275.748 194.502 270.6 191.4C270.163 191.118 269.664 190.947 269.146 190.904C268.628 190.86 268.108 190.944 267.63 191.149C261.241 193.631 255.578 212.533 255.526 212.718L254.206 212.348C254.443 211.543 260.106 192.641 267.089 189.908C267.756 189.632 268.479 189.52 269.198 189.582C269.917 189.644 270.611 189.879 271.22 190.265C276.91 193.67 277.9 202.343 278.863 210.725C279.827 219.107 280.698 226.697 285.582 229.456C286.115 229.794 286.718 230.005 287.345 230.071C287.973 230.137 288.607 230.058 289.199 229.838C294.096 228.03 298.122 216.968 301.356 208.072C301.739 207.042 302.095 206.039 302.465 205.062C307.613 191.136 312.061 179.111 318.463 176.867C319.524 176.523 320.65 176.428 321.754 176.591C322.858 176.754 323.909 177.169 324.826 177.804C333.036 182.767 334.343 192.073 336.481 207.491C336.851 210.131 337.247 212.982 337.709 216.018C338.012 217.985 338.276 219.846 338.54 221.602C340.56 235.514 341.682 243.17 347.926 246.761C351.028 248.543 353.839 246.391 357.1 243.91C360.796 241.085 365.02 237.904 370.102 240.953C379.751 246.734 380.833 260.159 382.457 280.474L382.602 282.282C384.344 303.904 386.958 305.752 390.522 308.326L389.875 309.421Z" fill="#BA68C8"/>
<g opacity="0.4">
<path d="M389.875 309.421C385.585 306.372 383.077 303.613 381.374 282.414L381.229 280.606C379.632 260.687 378.589 247.54 369.508 242.114C365.152 239.474 361.667 242.114 357.984 244.979C354.644 247.526 351.212 250.14 347.345 247.936C340.547 243.976 339.425 236.135 337.313 221.826C337.049 220.057 336.785 218.196 336.481 216.242C336.019 213.193 335.623 210.355 335.254 207.689C333.168 192.667 331.901 183.586 324.218 178.952C323.462 178.416 322.59 178.064 321.674 177.924C320.757 177.785 319.82 177.861 318.938 178.147C313.117 180.18 308.563 192.496 303.745 205.55C303.376 206.514 303.019 207.53 302.636 208.547C299.138 218.17 295.178 229.086 289.7 231.106C288.926 231.389 288.097 231.494 287.276 231.411C286.456 231.329 285.664 231.062 284.962 230.63C279.51 227.542 278.533 219.094 277.596 210.91C276.659 202.726 275.748 194.502 270.6 191.4C270.163 191.118 269.664 190.947 269.146 190.904C268.628 190.86 268.108 190.944 267.63 191.149C261.241 193.631 255.578 212.533 255.526 212.718L254.206 212.348C254.443 211.543 260.106 192.641 267.089 189.908C267.756 189.632 268.479 189.52 269.198 189.582C269.917 189.644 270.611 189.879 271.22 190.265C276.91 193.67 277.9 202.343 278.863 210.725C279.827 219.107 280.698 226.697 285.582 229.456C286.115 229.794 286.718 230.005 287.345 230.071C287.973 230.137 288.607 230.058 289.199 229.838C294.096 228.03 298.122 216.968 301.356 208.072C301.739 207.042 302.095 206.039 302.465 205.062C307.613 191.136 312.061 179.111 318.463 176.867C319.524 176.523 320.65 176.428 321.754 176.591C322.858 176.754 323.909 177.169 324.826 177.804C333.036 182.767 334.343 192.073 336.481 207.491C336.851 210.131 337.247 212.982 337.709 216.018C338.012 217.985 338.276 219.846 338.54 221.602C340.56 235.514 341.682 243.17 347.926 246.761C351.028 248.543 353.839 246.391 357.1 243.91C360.796 241.085 365.02 237.904 370.102 240.953C379.751 246.734 380.833 260.159 382.457 280.474L382.602 282.282C384.344 303.904 386.958 305.752 390.522 308.326L389.875 309.421Z" fill="black"/>
</g>
<path d="M367.554 236.28C368.536 236.923 369.354 237.787 369.943 238.802C370.532 239.817 370.875 240.956 370.946 242.128C370.946 244.279 369.428 245.15 367.567 244.081C366.581 243.443 365.76 242.58 365.17 241.564C364.581 240.548 364.24 239.407 364.175 238.234C364.175 236.135 365.64 235.264 367.554 236.28Z" fill="#BA68C8"/>
<g opacity="0.2">
<path d="M367.554 236.28C368.536 236.923 369.354 237.787 369.943 238.802C370.532 239.817 370.875 240.956 370.946 242.128C370.946 244.279 369.428 245.15 367.567 244.081C366.581 243.443 365.76 242.58 365.17 241.564C364.581 240.548 364.24 239.407 364.175 238.234C364.175 236.135 365.64 235.264 367.554 236.28Z" fill="black"/>
</g>
<path d="M324.562 174.491C325.544 175.132 326.363 175.995 326.95 177.011C327.537 178.027 327.876 179.167 327.941 180.338C327.941 182.49 326.436 183.361 324.575 182.292C323.588 181.654 322.766 180.792 322.177 179.775C321.587 178.759 321.246 177.618 321.182 176.444C321.182 174.24 322.687 173.422 324.562 174.491Z" fill="#BA68C8"/>
<g opacity="0.5">
<path d="M324.562 174.491C325.544 175.132 326.363 175.995 326.95 177.011C327.537 178.027 327.876 179.167 327.941 180.338C327.941 182.49 326.436 183.361 324.575 182.292C323.588 181.654 322.766 180.792 322.177 179.775C321.587 178.759 321.246 177.618 321.182 176.444C321.182 174.24 322.687 173.422 324.562 174.491Z" fill="white"/>
</g>
<path d="M270.956 186.965C271.943 187.6 272.765 188.46 273.355 189.474C273.944 190.488 274.285 191.628 274.349 192.799C274.349 194.964 272.844 195.835 270.97 194.766C269.987 194.124 269.17 193.261 268.583 192.245C267.996 191.229 267.656 190.09 267.59 188.918C267.577 186.767 269.095 185.882 270.956 186.965Z" fill="#BA68C8"/>
<path opacity="0.65" d="M319.268 333.63V196.508C319.224 195.716 318.995 194.944 318.598 194.256C318.202 193.569 317.649 192.983 316.985 192.548L176.788 111.606C175.468 110.88 174.504 111.474 174.504 112.926V250.048C174.547 250.841 174.776 251.612 175.173 252.3C175.569 252.988 176.123 253.573 176.788 254.008L316.985 334.95C318.252 335.689 319.268 335.095 319.268 333.63Z" fill="white"/>
<path d="M318.014 335.927C317.548 335.909 317.094 335.772 316.694 335.531L176.458 254.588C175.687 254.097 175.046 253.428 174.587 252.638C174.127 251.848 173.864 250.96 173.818 250.048V112.926C173.765 112.525 173.833 112.118 174.013 111.755C174.192 111.393 174.474 111.092 174.825 110.89C175.175 110.688 175.577 110.594 175.98 110.621C176.384 110.647 176.77 110.792 177.091 111.038L317.288 191.981C318.058 192.469 318.7 193.136 319.159 193.923C319.619 194.711 319.882 195.598 319.928 196.508V333.63C319.96 334.03 319.885 334.431 319.711 334.793C319.537 335.155 319.271 335.464 318.938 335.689C318.657 335.848 318.338 335.93 318.014 335.927ZM175.771 111.962C175.685 111.94 175.594 111.94 175.507 111.962C175.378 112.073 175.279 112.215 175.22 112.374C175.16 112.533 175.14 112.705 175.164 112.873V250.048C175.205 250.726 175.403 251.385 175.742 251.973C176.081 252.562 176.552 253.064 177.118 253.44L317.315 334.382C317.449 334.488 317.608 334.557 317.776 334.585C317.945 334.613 318.117 334.597 318.278 334.541C318.49 334.422 318.608 334.092 318.608 333.63V196.508C318.568 195.832 318.37 195.174 318.031 194.588C317.692 194.001 317.221 193.502 316.655 193.129L176.458 112.2C176.256 112.058 176.018 111.976 175.771 111.962Z" fill="#BA68C8"/>
<path d="M295.152 302.465V212.23C295.129 211.833 295.014 211.447 294.814 211.103C294.615 210.759 294.337 210.466 294.004 210.25L280.21 202.33C279.576 201.96 279.061 202.25 279.061 202.99V293.172C279.081 293.57 279.195 293.957 279.395 294.301C279.595 294.646 279.874 294.938 280.21 295.152L294.004 303.072C294.637 303.494 295.152 303.191 295.152 302.465Z" fill="#BA68C8"/>
<g opacity="0.3">
<path d="M295.152 302.465V212.23C295.129 211.833 295.014 211.447 294.814 211.103C294.615 210.759 294.337 210.466 294.004 210.25L280.21 202.33C279.576 201.96 279.061 202.25 279.061 202.99V293.172C279.081 293.57 279.195 293.957 279.395 294.301C279.595 294.646 279.874 294.938 280.21 295.152L294.004 303.072C294.637 303.494 295.152 303.191 295.152 302.465Z" fill="black"/>
</g>
<path d="M268.343 286.981V240.095C268.32 239.698 268.204 239.312 268.005 238.968C267.805 238.624 267.528 238.332 267.194 238.115L253.387 230.195C252.767 229.838 252.252 230.195 252.252 230.855V277.754C252.275 278.15 252.39 278.534 252.587 278.878C252.784 279.221 253.058 279.515 253.387 279.734L267.194 287.654C267.828 288.011 268.343 287.76 268.343 286.981Z" fill="#BA68C8"/>
<g opacity="0.2">
<path d="M268.343 286.981V240.095C268.32 239.698 268.204 239.312 268.005 238.968C267.805 238.624 267.528 238.332 267.194 238.115L253.387 230.195C252.767 229.838 252.252 230.195 252.252 230.855V277.754C252.275 278.15 252.39 278.534 252.587 278.878C252.784 279.221 253.058 279.515 253.387 279.734L267.194 287.654C267.828 288.011 268.343 287.76 268.343 286.981Z" fill="white"/>
</g>
<path d="M241.56 271.511V199.848C241.537 199.451 241.422 199.065 241.222 198.721C241.023 198.377 240.745 198.085 240.412 197.868L226.604 189.948C225.984 189.578 225.469 189.869 225.469 190.608V262.258C225.49 262.653 225.604 263.039 225.801 263.383C225.999 263.726 226.274 264.019 226.604 264.238L240.412 272.158C241.019 272.527 241.56 272.237 241.56 271.511Z" fill="#BA68C8"/>
<g opacity="0.2">
<path d="M241.56 271.511V199.848C241.537 199.451 241.422 199.065 241.222 198.721C241.023 198.377 240.745 198.085 240.412 197.868L226.604 189.948C225.984 189.578 225.469 189.869 225.469 190.608V262.258C225.49 262.653 225.604 263.039 225.801 263.383C225.999 263.726 226.274 264.019 226.604 264.238L240.412 272.158C241.019 272.527 241.56 272.237 241.56 271.511Z" fill="black"/>
</g>
<path d="M214.711 256.08V153.41C214.691 153.014 214.578 152.629 214.38 152.285C214.183 151.941 213.908 151.648 213.576 151.43L199.769 143.51C199.148 143.141 198.634 143.51 198.634 144.17V246.787C198.657 247.183 198.771 247.567 198.968 247.911C199.165 248.254 199.439 248.547 199.769 248.767L213.576 256.687C214.21 257.057 214.711 256.753 214.711 256.08Z" fill="#BA68C8"/>
<path d="M499.792 272.488C499.607 271.498 494.762 260.225 492.769 255.79L482.671 260.515L486.539 269.372L496.993 277.464C498.01 277.154 498.869 276.464 499.39 275.537C499.911 274.61 500.055 273.518 499.792 272.488Z" fill="#FFA8A7"/>
<path d="M479.675 390.562H471.887V401.914H479.675V390.562Z" fill="#FFA8A7"/>
<path d="M452.24 376.541L444.457 376.809L444.847 388.154L452.631 387.886L452.24 376.541Z" fill="#FFA8A7"/>
<path d="M454.186 227.99C451.367 228.056 448.611 228.833 446.174 230.25C443.737 231.667 441.698 233.678 440.246 236.095C435.943 242.497 428.366 253.44 428.366 253.44L442.556 257.941L454.186 227.99Z" fill="#BA68C8"/>
<g opacity="0.7">
<path d="M454.186 227.99C451.367 228.056 448.611 228.833 446.174 230.25C443.737 231.667 441.698 233.678 440.246 236.095C435.943 242.497 428.366 253.44 428.366 253.44L442.556 257.941L454.186 227.99Z" fill="white"/>
</g>
<path d="M479.16 279.84C479.16 287.285 480.124 335.425 480.124 335.425C480.309 337.564 482.315 341.51 481.879 349.734C481.285 360.914 480.322 391.974 480.322 391.974C480.322 391.974 476.665 395.604 471.504 391.974C471.504 391.974 464.442 349.8 463.056 338.725C461.828 329.063 459.769 302.821 459.769 302.821L452.549 333.722C452.549 333.722 453.869 340.982 454.093 346.104C454.318 351.226 452.773 380.846 452.773 380.846C451.51 381.636 450.062 382.082 448.573 382.139C447.085 382.197 445.607 381.865 444.286 381.176C444.286 381.176 438.029 337.907 437.224 333.274C436.419 328.64 442.715 279.84 442.715 279.84H479.16Z" fill="#BA68C8"/>
<path opacity="0.2" d="M479.16 279.84C479.16 287.285 480.124 335.425 480.124 335.425C480.309 337.564 482.315 341.51 481.879 349.734C481.285 360.914 480.322 391.974 480.322 391.974C480.322 391.974 476.665 395.604 471.504 391.974C471.504 391.974 464.442 349.8 463.056 338.725C461.828 329.063 459.769 302.821 459.769 302.821L452.549 333.722C452.549 333.722 453.869 340.982 454.093 346.104C454.318 351.226 452.773 380.846 452.773 380.846C451.51 381.636 450.062 382.082 448.573 382.139C447.085 382.197 445.607 381.865 444.286 381.176C444.286 381.176 438.029 337.907 437.224 333.274C436.419 328.64 442.715 279.84 442.715 279.84H479.16Z" fill="black"/>
<path d="M467.438 228.228C474.421 229.904 483.278 232.729 486.394 239.171C489.509 245.612 494.314 256.054 494.314 256.054L482.75 262.891L479.16 256.714V279.84C473.695 285.78 454.634 288.552 442.702 279.84V241.771C442.702 235.712 446.081 228.413 455.387 227.872L467.438 228.228Z" fill="#BA68C8"/>
<path opacity="0.7" d="M467.438 228.228C474.421 229.904 483.278 232.729 486.394 239.171C489.509 245.612 494.314 256.054 494.314 256.054L482.75 262.891L479.16 256.714V279.84C473.695 285.78 454.634 288.552 442.702 279.84V241.771C442.702 235.712 446.081 228.413 455.387 227.872L467.438 228.228Z" fill="white"/>
<path d="M470.065 197.155C470.692 197.083 471.327 197.155 471.922 197.365C472.516 197.576 473.055 197.919 473.497 198.37C474.976 199.874 474.672 202.673 473.497 209.088L468.93 209.616L470.065 197.155Z" fill="#263238"/>
<path d="M443.52 195.36C442.54 195.372 441.569 195.179 440.669 194.792C439.27 193.987 438.9 195.571 439.666 196.957C440.173 197.946 440.924 198.788 441.848 199.405C442.772 200.022 443.838 200.393 444.946 200.482C444.946 200.284 446.266 196.918 446.266 196.918L443.52 195.36Z" fill="#263238"/>
<path d="M467.927 209.616C468.6 210.025 469.564 208.718 470.395 207.847C470.724 207.472 471.142 207.187 471.611 207.018C472.08 206.849 472.584 206.802 473.076 206.882C473.568 206.961 474.032 207.164 474.424 207.471C474.817 207.778 475.124 208.18 475.319 208.639C476.705 211.556 473.563 215.45 471.715 216.731C471.199 217.177 470.554 217.449 469.874 217.508C469.194 217.568 468.513 217.411 467.927 217.061L467.438 228.228C466.623 230.018 465.376 231.577 463.809 232.765C462.243 233.954 460.405 234.736 458.462 235.039C451.862 235.924 453.248 230.525 455.4 227.872V223.806C453.762 224.161 452.077 224.25 450.41 224.07C449.552 223.846 447.52 221.43 446.2 218.618C444.721 215.516 442.24 210.012 444.457 200.706C446.807 190.714 457.538 190.41 463.954 194.436C470.369 198.462 467.927 209.616 467.927 209.616Z" fill="#FFA8A7"/>
<path d="M467.927 210.751C468.257 210.751 469.564 208.613 470.395 207.847C471.57 206.778 470.065 197.155 470.065 197.155C470.065 197.155 471.24 193.512 468.93 191.083C466.62 188.654 462.159 189.077 458.885 188.958C454.867 188.978 450.888 188.179 447.19 186.608C442.543 184.589 442.2 184.351 441.619 186.397C441.038 188.443 440.827 193.103 443.599 196.231L445.909 197.089C445.909 197.089 447.15 198.185 451.48 198.713C455.482 199.017 459.504 198.942 463.492 198.488C464.746 198.317 465.01 199.531 465.683 202.858C466.29 205.788 466.778 210.738 467.927 210.751Z" fill="#263238"/>
<path d="M470.052 197.908L474.144 195.703C474.014 195.428 473.829 195.183 473.601 194.982C473.373 194.78 473.106 194.628 472.818 194.533C472.529 194.438 472.224 194.402 471.921 194.429C471.618 194.455 471.323 194.543 471.055 194.687C470.506 194.992 470.095 195.496 469.908 196.096C469.721 196.696 469.773 197.345 470.052 197.908Z" fill="#263238"/>
<path d="M455.4 223.806C458.199 223.278 460.943 222.492 463.597 221.456C464.847 220.81 465.87 219.796 466.527 218.552C466.209 219.796 465.643 220.964 464.864 221.984C463.307 223.964 455.4 225.43 455.4 225.43V223.806Z" fill="#F28F8F"/>
<path d="M456.878 208.098C456.873 208.261 456.901 208.423 456.959 208.575C457.018 208.727 457.107 208.865 457.22 208.982C457.333 209.099 457.469 209.192 457.619 209.256C457.769 209.319 457.93 209.352 458.093 209.352C458.36 209.373 458.628 209.312 458.859 209.178C459.091 209.043 459.277 208.841 459.391 208.599C459.505 208.356 459.543 208.084 459.499 207.82C459.455 207.555 459.332 207.31 459.145 207.118C458.959 206.925 458.718 206.794 458.455 206.742C458.192 206.689 457.919 206.718 457.673 206.825C457.427 206.931 457.219 207.11 457.077 207.337C456.935 207.565 456.866 207.83 456.878 208.098Z" fill="#263238"/>
<path d="M458.159 203.504L460.799 204.943C460.982 204.586 461.021 204.172 460.908 203.786C460.795 203.401 460.538 203.073 460.192 202.871C460.018 202.771 459.826 202.709 459.627 202.687C459.429 202.665 459.228 202.685 459.037 202.744C458.846 202.803 458.67 202.902 458.518 203.033C458.367 203.163 458.245 203.324 458.159 203.504Z" fill="#263238"/>
<path d="M456.971 216.348L454.186 217.391C454.248 217.576 454.346 217.747 454.475 217.894C454.604 218.041 454.761 218.161 454.937 218.247C455.112 218.333 455.303 218.383 455.498 218.395C455.693 218.406 455.889 218.379 456.073 218.315C456.446 218.164 456.747 217.876 456.914 217.51C457.081 217.144 457.101 216.728 456.971 216.348Z" fill="#F28F8F"/>
<path d="M446.028 204.521L448.391 202.686C448.28 202.526 448.137 202.391 447.972 202.288C447.806 202.184 447.622 202.116 447.429 202.086C447.237 202.057 447.04 202.067 446.851 202.115C446.663 202.164 446.486 202.25 446.332 202.369C446.014 202.62 445.804 202.983 445.748 203.384C445.691 203.785 445.792 204.192 446.028 204.521Z" fill="#263238"/>
<path d="M446.754 207.755C446.754 207.914 446.785 208.072 446.846 208.22C446.907 208.367 446.997 208.501 447.11 208.614C447.222 208.726 447.356 208.816 447.504 208.877C447.651 208.938 447.809 208.969 447.968 208.969C448.128 208.969 448.286 208.938 448.433 208.877C448.58 208.816 448.714 208.726 448.827 208.614C448.94 208.501 449.029 208.367 449.09 208.22C449.151 208.072 449.183 207.914 449.183 207.755C449.188 207.592 449.161 207.43 449.102 207.278C449.043 207.126 448.955 206.987 448.841 206.87C448.728 206.753 448.592 206.66 448.442 206.597C448.292 206.533 448.131 206.501 447.968 206.501C447.642 206.508 447.331 206.643 447.103 206.878C446.876 207.113 446.75 207.428 446.754 207.755Z" fill="#263238"/>
<path d="M452.945 206.593L452.549 213.919L448.734 212.612L452.945 206.593Z" fill="#F28F8F"/>
<path d="M421.159 250.681L452.285 258.878L461.472 297.515L431.878 288.922L421.159 250.681Z" fill="#BA68C8"/>
<path d="M434.729 276.25C434.181 277.227 433.352 278.018 432.349 278.52C431.347 279.021 430.217 279.21 429.106 279.061L428.657 277.464L434.729 276.25Z" fill="#BA68C8"/>
<path d="M441.685 277.464C441.817 278.494 443.942 280.394 447.519 281.582C451.585 282.902 457.829 282.229 457.829 282.229L457.274 280.302L441.685 277.464Z" fill="#BA68C8"/>
<path opacity="0.43" d="M430.32 256.278L430.056 255.09C429.924 254.43 431.746 254.404 434.148 255.024L438.728 256.212C441.131 256.846 443.177 257.875 443.322 258.535L443.586 259.723L430.32 256.278Z" fill="#455A64"/>
<path d="M428.102 251.803C428.023 251.394 428.762 251.288 429.766 251.566L431.64 252.12C431.64 252.12 431.099 249.48 435.138 250.444C436.216 250.603 437.234 251.037 438.095 251.706C438.955 252.374 439.628 253.253 440.048 254.258L441.989 254.813C443.058 255.116 444.022 255.684 444.154 256.133L444.378 256.872L428.34 252.648L428.102 251.803Z" fill="#37474F"/>
<path d="M430.32 253.084C431.785 253.44 432.393 253.638 432.617 254.641C432.841 255.644 432.973 256.648 432.973 256.648L440.062 258.522C440.062 258.522 439.719 257.057 439.613 256.489C439.507 255.922 439.745 255.578 440.933 255.869L441.025 255.42L429.898 252.595L430.32 253.084Z" fill="#37474F"/>
<path d="M430.069 256.397L429.818 255.209C429.673 254.549 431.495 254.522 433.897 255.143L438.478 256.331C440.88 256.951 442.939 257.981 443.084 258.641L443.335 259.829L430.069 256.397Z" fill="#37474F"/>
<path d="M496.993 277.464L486.539 269.372C486.539 269.372 464.627 273.491 462.158 273.689C459.69 273.887 457.736 271.445 456.799 269.016C455.862 266.587 453.961 266.891 453.961 266.891C453.961 266.891 454.687 269.98 454.925 270.956C455.162 271.933 449.447 272.738 446.16 271.63C442.873 270.521 438.108 272.131 441.052 276.619C443.995 281.107 449.75 281.609 453.737 281.622C455.405 281.606 457.071 281.491 458.726 281.279C460.046 281.12 461.366 280.988 462.594 280.896C470.752 280.315 493.284 278.626 496.993 277.464Z" fill="#FFA8A7"/>
<path d="M424.314 261.98L425.7 266.904C425.964 267.854 429.581 269.544 431.877 270.204C434.174 270.864 436.669 271.524 435.587 274.784C434.583 277.728 430.821 278.401 428.907 278.322C427.618 278.104 426.414 277.534 425.429 276.674C424.443 275.815 423.715 274.699 423.324 273.451C422.004 269.689 422.717 265.663 422.189 263.459C421.661 261.254 423.179 260.674 424.314 261.98Z" fill="#F28F8F"/>
<path d="M471.887 398.072V396.95C471.148 397.28 469.405 403.894 466.316 406.705C463.861 408.949 460.508 411.55 459.716 414.044C458.924 416.539 464.389 418.084 466.686 417.674C469.326 417.199 473.986 415.325 475.147 413.582C476.309 411.84 476.85 409.266 477.787 407.986C478.724 406.705 480.902 405.346 481.417 403.814C481.571 402.434 481.417 401.037 480.968 399.722C480.612 398.336 480.216 396.832 479.754 396.95C479.754 397.122 479.754 397.808 479.754 397.808C478.622 398.685 477.226 399.15 475.794 399.128C474.646 399.168 471.874 398.944 471.887 398.072Z" fill="#37474F"/>
<path d="M444.84 385.73C444.431 385.73 444.101 386.311 443.216 387.275C441.881 388.624 440.328 389.74 438.623 390.575C435.706 392.04 430.043 394.284 427.469 395.446C425.858 396.172 425.938 398.086 427.601 399.208C429.264 400.33 433.264 401.108 438.068 400.026C440.708 399.445 444.101 397.03 446.252 397.148C448.404 397.267 452.443 397.254 454.04 396.158C455.638 395.063 454.991 392.713 454.542 390.694C454.093 388.674 453.354 385.136 452.628 385.282V385.981C451.691 387.394 446.912 387.974 444.853 386.932L444.84 385.73Z" fill="#37474F"/>
<path d="M107.329 380.992L112.2 387.763C109.979 388.789 107.557 389.303 105.111 389.268C100.755 389.44 99.5542 387.948 99.3958 387.658C98.6566 386.087 99.805 383.236 100.122 380.78L107.329 380.992Z" fill="#37474F"/>
<path d="M99.396 374.18C99.396 374.18 100.135 380.332 100.188 381.652C100.241 382.972 106.194 383.407 107.329 380.992L107.501 373.468L99.396 374.18Z" fill="#F28F8F"/>
<path d="M99.3958 252.991C95.3302 259.327 91.4758 264.871 90.631 272.026C88.8886 287.06 94.591 304.247 95.8186 315.361C93.5104 318.533 92.1757 322.307 91.9774 326.225C91.9774 330.818 99.3958 374.18 99.3958 374.18C99.3958 374.18 104.781 375.83 107.501 373.468L112.596 293.7L109.956 283.985L99.3958 252.991Z" fill="#BA68C8"/>
<path opacity="0.5" d="M99.3958 252.991C95.3302 259.327 91.4758 264.871 90.631 272.026C88.8886 287.06 94.591 304.247 95.8186 315.361C93.5104 318.533 92.1757 322.307 91.9774 326.225C91.9774 330.818 99.3958 374.18 99.3958 374.18C99.3958 374.18 104.781 375.83 107.501 373.468L112.596 293.7L109.956 283.985L99.3958 252.991Z" fill="white"/>
<path d="M136.976 223.278L163.785 236.148L147.695 272.329L122.694 257.902L136.976 223.278Z" fill="#BA68C8"/>
<path d="M160.631 236.808L146.744 267.643L127.499 256.555L138.415 226.208L160.631 236.808Z" fill="#BA68C8"/>
<path d="M138.415 226.208L160.631 236.808L145.635 267.973L124.621 255.974L138.415 226.208Z" fill="white"/>
<path d="M143.246 230.67L143.761 229.561C144.052 228.954 145.886 229.205 147.866 230.142L151.655 231.937C153.635 232.861 154.994 234.128 154.717 234.736L154.189 235.844L143.246 230.67Z" fill="#E0E0E0"/>
<path d="M90.3011 236.28C88.3475 241.85 84.4799 250.694 85.7207 252.476C86.9615 254.258 94.4063 253.876 98.5511 253.717C103.831 253.519 108.214 253.308 108.214 253.308L107.329 244.068H99.8315L103.132 234.722L90.3011 236.28Z" fill="#F28F8F"/>
<path d="M97.812 216.48C95.0796 220.968 89.562 236.808 89.562 236.808C91.095 238.547 93.1284 239.769 95.3832 240.306C97.3524 240.91 99.4448 240.992 101.455 240.544L107.554 225.364L97.812 216.48Z" fill="#BA68C8"/>
<path opacity="0.4" d="M97.812 216.48C95.0796 220.968 89.562 236.808 89.562 236.808C91.095 238.547 93.1284 239.769 95.3832 240.306C97.3524 240.91 99.4448 240.992 101.455 240.544L107.554 225.364L97.812 216.48Z" fill="black"/>
<path d="M125.096 219.305C129.888 220.744 132.805 220.994 138.098 229.139C143.392 237.283 154.981 253.44 156.13 255.38C157.727 258.02 158.413 261.294 157.04 263.776C155.668 266.257 152.011 265.096 146.758 260.462C141.504 255.829 131.604 243.408 131.604 243.408C131.604 243.408 121.282 231.779 125.096 219.305Z" fill="#FFA8A7"/>
<path d="M121.268 208.745L119.975 220.189L108.676 221.496L110.312 206.303L121.268 208.745Z" fill="#FFA8A7"/>
<path d="M97.0991 192.02C98.0363 181.46 103.699 177.091 108.2 176.048C117.137 173.936 125.11 177.184 128.726 183.454C129.677 185.104 131.274 191.281 128.093 194.924C124.912 198.568 97.0991 192.02 97.0991 192.02Z" fill="#263238"/>
<path d="M129.611 195.743C129.611 195.743 131.96 199.703 131.604 200.152C130.979 200.514 130.296 200.765 129.584 200.891L129.611 195.743Z" fill="#F28F8F"/>
<path d="M122.483 183.005C124.911 184.444 129.083 187.07 129.65 196.31C130.244 205.801 128.436 208.718 127.01 209.88C126.099 210.672 121.427 210.408 119.09 209.55C116.226 208.468 109.85 205.524 107.105 200.482C103.937 194.555 103.659 186.886 107.857 184.127C109.997 182.709 112.464 181.861 115.024 181.665C117.584 181.469 120.151 181.93 122.483 183.005Z" fill="#FFA8A7"/>
<path d="M123.195 183.48C123.195 183.48 124.872 192.205 121.968 197.485C121.968 197.485 120.648 194.04 117.691 194.845C114.734 195.65 114.774 199.531 116.952 201.643C117.504 202.244 118.214 202.677 119.001 202.892C119.788 203.107 120.62 203.095 121.4 202.858C120.99 205.575 119.723 208.091 117.783 210.038C114.705 210.751 111.488 210.578 108.503 209.541C105.519 208.504 102.888 206.645 100.914 204.178C94.3139 196.337 96.0431 183.058 106.511 180.206C116.978 177.355 123.195 183.48 123.195 183.48Z" fill="#263238"/>
<path d="M111.923 384.516C111.923 384.516 117.836 384.133 121.915 383.618C125.994 383.104 129.228 385.097 128.264 386.786C127.301 388.476 125.057 389.862 121.559 391.037C118.562 392.053 114.959 392.779 111.844 393.677C108.728 394.574 106.564 395.736 104.755 395.116C102.736 394.416 101.864 393.611 102.036 392.132C102.477 390.029 103.023 387.95 103.673 385.902L111.923 384.516Z" fill="#37474F"/>
<path d="M105.389 377.969L103.264 387.301C103.264 387.301 103.066 388.436 107.923 389.162C112.781 389.888 120.41 386.628 121.717 385.955C123.024 385.282 123.169 383.975 118.391 384.239C113.612 384.503 111.923 384.516 111.923 384.516L113.52 380.371L105.389 377.969Z" fill="#FFA8A7"/>
<path d="M112.596 293.7L109.956 283.985C104.901 282.654 100.026 280.717 95.436 278.216C95.436 278.216 98.1816 283.219 105.996 285.952L110.101 298.439L110.458 327.004L112.596 293.7Z" fill="#BA68C8"/>
<path d="M99.3959 252.991C97.2179 256.542 92.0171 262.627 93.1127 268.462C94.4327 275.55 98.2739 280.513 109.916 283.985L120.846 323.585C120.846 323.585 115.157 328.865 113.414 333.973C111.672 339.082 105.389 378.008 105.389 378.008C105.389 378.008 107.329 381.176 113.467 380.411C113.467 380.411 134.864 331.571 136.382 328.39C138.193 325.186 138.833 321.453 138.191 317.83C137.517 312.695 130.271 256.634 130.271 256.634L99.3959 252.991Z" fill="#BA68C8"/>
<path opacity="0.5" d="M99.3959 252.991C97.2179 256.542 92.0171 262.627 93.1127 268.462C94.4327 275.55 98.2739 280.513 109.916 283.985L120.846 323.585C120.846 323.585 115.157 328.865 113.414 333.973C111.672 339.082 105.389 378.008 105.389 378.008C105.389 378.008 107.329 381.176 113.467 380.411C113.467 380.411 134.864 331.571 136.382 328.39C138.193 325.186 138.833 321.453 138.191 317.83C137.517 312.695 130.271 256.634 130.271 256.634L99.3959 252.991Z" fill="white"/>
<path d="M97.4159 217.298C98.2607 215.054 100.953 213.18 103.382 213.84C110.999 215.912 122.839 218.645 125.096 219.305C125.096 219.305 124.093 236.465 132.858 241.586C132.449 244.847 130.218 256.542 130.218 256.542C130.218 256.542 119.658 261.664 110.999 259.182C102.339 256.7 99.3959 253.031 99.3959 253.031L103.739 245.956C102.815 243.646 99.2243 235.844 96.9143 228.584C96.0648 224.846 96.2381 220.947 97.4159 217.298Z" fill="#BA68C8"/>
<path opacity="0.2" d="M97.4159 217.298C98.2607 215.054 100.953 213.18 103.382 213.84C110.999 215.912 122.839 218.645 125.096 219.305C125.096 219.305 124.093 236.465 132.858 241.586C132.449 244.847 130.218 256.542 130.218 256.542C130.218 256.542 119.658 261.664 110.999 259.182C102.339 256.7 99.3959 253.031 99.3959 253.031L103.739 245.956C102.815 243.646 99.2243 235.844 96.9143 228.584C96.0648 224.846 96.2381 220.947 97.4159 217.298Z" fill="black"/>
<path opacity="0.25" d="M102.551 243.131C106.161 245.302 109.944 247.17 113.863 248.714C110.307 248.646 106.825 247.683 103.739 245.916L102.551 243.131Z" fill="#BA68C8"/>
<path d="M104.795 178.398C104.795 178.398 101.178 172.234 92.3207 173.831C83.4635 175.428 79.8731 184.826 80.0051 190.78C80.1371 196.733 82.1303 200.891 76.7975 207.94C75.7464 209.33 75.0058 210.929 74.6255 212.63C74.2453 214.331 74.2344 216.093 74.5935 217.798C74.9525 219.504 75.6733 221.112 76.7071 222.515C77.7408 223.918 79.0635 225.083 80.5859 225.931C87.7007 229.891 89.4299 223.001 87.7799 217.114C85.8791 210.368 92.9411 209.194 94.8287 204.085C96.7163 198.977 93.0071 188.245 95.3831 184.602C98.0231 180.642 101.587 181.196 103.303 182.543L104.795 178.398Z" fill="#263238"/>
<path d="M125.096 219.305C127.464 219.808 129.776 220.542 132 221.496C134.904 222.922 146.229 240.702 146.229 240.702C146.229 240.702 145.424 247.394 136.158 250.048L130.68 243.131C130.68 243.131 122.628 231.106 125.096 219.305Z" fill="#BA68C8"/>
<path opacity="0.1" d="M125.096 219.305C127.464 219.808 129.776 220.542 132 221.496C134.904 222.922 146.229 240.702 146.229 240.702C146.229 240.702 145.424 247.394 136.158 250.048L130.68 243.131C130.68 243.131 122.628 231.106 125.096 219.305Z" fill="black"/>
<path d="M132.29 245.216C129.856 242.383 128.02 239.088 126.892 235.528C126.892 235.528 126.892 243.21 131.947 247.183L132.29 245.216Z" fill="#BA68C8"/>
<path opacity="0.4" d="M132.29 245.216C129.856 242.383 128.02 239.088 126.892 235.528C126.892 235.528 126.892 243.21 131.947 247.183L132.29 245.216Z" fill="black"/>
<path d="M144.21 225.892C144.382 225.509 145.187 225.535 146.005 225.892L147.484 226.618C147.484 226.618 148.632 224.228 152.064 225.667C155.496 227.106 154.44 229.865 154.44 229.865L156.011 230.67C156.882 231.106 157.463 231.779 157.331 232.175L157.067 232.874L143.867 226.538L144.21 225.892Z" fill="#455A64"/>
<path d="M145.556 227.396C146.797 227.951 147.272 228.215 146.876 229.165C146.48 230.116 145.913 231.026 145.913 231.026L151.747 233.825C151.747 233.825 152.367 232.505 152.631 231.924C152.895 231.343 153.371 231.119 154.295 231.568L154.691 231.172L145.451 226.882L145.556 227.396Z" fill="#455A64"/>
<path d="M143.141 230.34L143.669 229.231C143.959 228.611 145.794 228.875 147.774 229.812L151.562 231.607C153.529 232.531 154.902 233.785 154.611 234.406L154.083 235.514L143.141 230.34Z" fill="#455A64"/>
</svg>
