<svg width="15" height="20" viewBox="0 0 15 20" fill="none" xmlns="http://www.w3.org/2000/svg">
<path d="M11.9174 2.03381V3.97406H13.0576V17.6071H1.94239V3.97406H3.08257V2.03381H0V19.5495H15V2.03381H11.9174Z" fill="white"/>
<path d="M5.05717 4.267H9.94308C10.5613 4.267 11.0619 3.76643 11.0619 3.1482V2.95354V2.02941H9.08099C9.08099 1.15662 8.37292 0.450684 7.50227 0.450684C6.62948 0.450684 5.92354 1.15876 5.92354 2.02941H3.94265V2.95354V3.1482C3.93838 3.76643 4.43895 4.267 5.05717 4.267ZM7.50013 1.27427C7.91727 1.27427 8.25526 1.61226 8.25526 2.02941C8.25526 2.44655 7.91727 2.78454 7.50013 2.78454C7.08299 2.78454 6.74499 2.44655 6.74499 2.02941C6.74499 1.61226 7.08299 1.27427 7.50013 1.27427Z" fill="white"/>
<path d="M11.3869 8.68246L10.1761 7.47168L6.40682 11.2431L4.82382 9.66007L3.61304 10.8709L6.40682 13.6646L11.3869 8.68246Z" fill="white"/>
</svg>
