<svg width="18" height="17" viewBox="0 0 18 17" fill="none" xmlns="http://www.w3.org/2000/svg">
<path d="M16.5588 7.54095C16.3462 7.32837 16.0872 7.19438 15.8141 7.13512C15.541 5.86867 14.9136 4.66278 13.9293 3.67848C12.945 2.69418 11.7391 2.06675 10.4727 1.79491C10.4135 1.52178 10.2795 1.26154 10.0669 1.05025C9.77187 0.753927 9.38666 0.607056 9.00016 0.607056C8.61366 0.607056 8.22846 0.753927 7.93343 1.04896C7.72086 1.26154 7.58687 1.52049 7.52761 1.79362C6.26119 2.06675 5.05532 2.69418 4.07104 3.67848C3.08676 4.66278 2.45935 5.86867 2.18622 7.13512C1.9131 7.19438 1.65415 7.32837 1.44157 7.54095C0.852809 8.12972 0.852809 9.08568 1.44157 9.67445C1.65415 9.88703 1.9131 10.021 2.18622 10.0803C2.45935 11.3467 3.08547 12.5526 4.06975 13.5369C5.05403 14.5212 6.2599 15.1499 7.52632 15.4218C7.58558 15.6949 7.71957 15.9539 7.93214 16.1652C8.22717 16.4602 8.61238 16.6071 8.99887 16.6071C9.38537 16.6071 9.77058 16.4602 10.0656 16.1652C10.2782 15.9526 10.4122 15.6936 10.4714 15.4205C11.7378 15.1474 12.9437 14.5199 13.928 13.5356C14.9123 12.5513 15.5397 11.3454 15.8115 10.079C16.0846 10.0197 16.3449 9.88574 16.5562 9.67316C17.1475 9.08568 17.1475 8.12972 16.5588 7.54095ZM8.64716 1.7627C8.77471 1.63516 8.92286 1.61712 9.00016 1.61712C9.07746 1.61712 9.22562 1.63645 9.35316 1.7627C9.5477 1.95725 9.5477 2.27289 9.35316 2.46743C9.22562 2.59498 9.07746 2.61301 9.00016 2.61301C8.92286 2.61301 8.77471 2.59369 8.64716 2.46743C8.45262 2.27418 8.45262 1.95725 8.64716 1.7627ZM2.1553 8.25469C2.28285 8.12715 2.431 8.10911 2.5083 8.10911C2.5856 8.10911 2.73376 8.12843 2.8613 8.25469C3.05584 8.44923 3.05584 8.76488 2.8613 8.95942C2.73376 9.08697 2.5856 9.105 2.5083 9.105C2.431 9.105 2.28285 9.08568 2.1553 8.95942C1.96077 8.76617 1.96077 8.44923 2.1553 8.25469ZM9.35316 15.4527C9.22562 15.5802 9.07746 15.5983 9.00016 15.5983C8.92286 15.5983 8.77471 15.579 8.64716 15.4527C8.45262 15.2582 8.45262 14.9425 8.64716 14.748C8.77471 14.6204 8.92286 14.6024 9.00016 14.6024C9.07746 14.6024 9.22562 14.6217 9.35316 14.748C9.5477 14.9412 9.5477 15.2582 9.35316 15.4527ZM13.2156 12.8232C12.3962 13.6426 11.3964 14.1721 10.3439 14.413C10.2743 14.2764 10.1828 14.1476 10.0682 14.0329C9.77316 13.7379 9.38795 13.591 9.00145 13.591C8.61495 13.591 8.22974 13.7379 7.93472 14.0329C7.82006 14.1476 7.72859 14.2764 7.65773 14.4143C6.60388 14.1721 5.60414 13.6426 4.78606 12.8232C3.96669 12.0038 3.43718 11.004 3.19498 9.95145C3.33283 9.88188 3.46166 9.78912 3.57632 9.67445C4.16509 9.08568 4.16509 8.12972 3.57632 7.54095C3.46166 7.42628 3.33283 7.33481 3.19627 7.26395C3.43847 6.21008 3.96797 5.21033 4.78735 4.39222C5.60672 3.57283 6.60646 3.04332 7.65902 2.8024C7.72859 2.93897 7.82006 3.0678 7.93601 3.18246C8.23103 3.4775 8.61624 3.62437 9.00274 3.62437C9.38923 3.62437 9.77444 3.4775 10.0695 3.18246C10.1841 3.0678 10.2756 2.93897 10.3452 2.8024C11.399 3.04461 12.3988 3.57412 13.2181 4.39222C14.0375 5.21161 14.567 6.21137 14.8079 7.26395C14.6714 7.33352 14.5425 7.425 14.4279 7.54095C13.8391 8.12972 13.8391 9.08568 14.4279 9.67445C14.5425 9.78912 14.6714 9.88059 14.8079 9.95145C14.5644 11.004 14.0349 12.0038 13.2156 12.8232ZM15.845 8.96071C15.7175 9.08825 15.5693 9.10629 15.492 9.10629C15.4147 9.10629 15.2666 9.08697 15.139 8.96071C14.9445 8.76617 14.9445 8.45052 15.139 8.25598C15.2666 8.12843 15.4147 8.1104 15.492 8.1104C15.5693 8.1104 15.7175 8.12972 15.845 8.25598C16.0396 8.44923 16.0396 8.76617 15.845 8.96071Z" fill="white" stroke="white" stroke-width="0.3"/>
<path d="M9.15789 4.60706L7.55263 8.21776L8.29605 8.72506L7 11.6071L10.7884 8.53893L9.86623 7.90998L11 5.86496L9.15789 4.60706Z" fill="white"/>
</svg>
