<svg width="25" height="27" viewBox="0 0 25 27" fill="none" xmlns="http://www.w3.org/2000/svg">
<path d="M20 18.4235C18.6609 18.4235 17.575 17.3377 17.575 15.9986V11.5192C17.575 7.76923 14.803 4.66886 11.1961 4.15056V2H8.80394V4.15056C5.197 4.66886 2.42495 7.77157 2.42495 11.5192V15.9962C2.42495 17.3354 1.33912 18.4212 0 18.4212V23.7777H7.59146L7.53752 23.7964C7.53752 24.4484 7.76735 25.0019 8.22467 25.4615C8.68199 25.9189 9.2378 26.1487 9.88977 26.1487C10.5652 26.1487 11.1257 25.9189 11.5713 25.4615C12.0169 25.0042 12.2397 24.4484 12.2397 23.7964L12.1904 23.7777H20V18.4235ZM17.6079 21.3879H2.39212V20.1778C3.84146 19.3452 4.81707 17.7833 4.81707 15.9962V11.5192C4.81707 8.73311 7.08255 6.46764 9.86867 6.46764H10.129C12.9151 6.46764 15.1806 8.73311 15.1806 11.5192V15.9962C15.1806 17.7833 16.1585 19.3452 17.6055 20.1778V21.3879H17.6079Z" fill="white"/>
<circle cx="18" cy="7" r="6.5" fill="#FF2828" stroke="#F5F8FF"/>
<path d="M19.948 9.324C20.0253 9.324 20.0867 9.34667 20.132 9.392C20.1773 9.43733 20.2 9.496 20.2 9.568V10H16.376V9.756C16.376 9.70533 16.3867 9.65333 16.408 9.6C16.4293 9.54667 16.4627 9.49733 16.508 9.452L18.344 7.608C18.496 7.45333 18.6347 7.30533 18.76 7.164C18.8853 7.02 18.992 6.876 19.08 6.732C19.168 6.588 19.236 6.44267 19.284 6.296C19.332 6.14667 19.356 5.988 19.356 5.82C19.356 5.652 19.3293 5.50533 19.276 5.38C19.2227 5.252 19.1493 5.14667 19.056 5.064C18.9653 4.98133 18.8573 4.92 18.732 4.88C18.6067 4.83733 18.472 4.816 18.328 4.816C18.1813 4.816 18.0467 4.83733 17.924 4.88C17.8013 4.92267 17.692 4.98267 17.596 5.06C17.5027 5.13467 17.424 5.224 17.36 5.328C17.296 5.432 17.2507 5.54667 17.224 5.672C17.192 5.76533 17.148 5.828 17.092 5.86C17.0387 5.88933 16.9627 5.89733 16.864 5.884L16.492 5.82C16.5293 5.55867 16.6013 5.328 16.708 5.128C16.8173 4.92533 16.9533 4.756 17.116 4.62C17.2813 4.484 17.4693 4.38133 17.68 4.312C17.8907 4.24 18.1187 4.204 18.364 4.204C18.6067 4.204 18.8333 4.24 19.044 4.312C19.2547 4.384 19.4373 4.48933 19.592 4.628C19.7467 4.764 19.868 4.93067 19.956 5.128C20.044 5.32533 20.088 5.54933 20.088 5.8C20.088 6.01333 20.056 6.212 19.992 6.396C19.928 6.57733 19.8413 6.75067 19.732 6.916C19.6227 7.08133 19.496 7.24267 19.352 7.4C19.2107 7.55733 19.06 7.716 18.9 7.876L17.388 9.42C17.4947 9.39067 17.6027 9.368 17.712 9.352C17.8213 9.33333 17.9267 9.324 18.028 9.324H19.948Z" fill="white"/>
</svg>
