<svg width="21" height="20" viewBox="0 0 21 20" fill="none" xmlns="http://www.w3.org/2000/svg">
<path d="M20.9774 18.4806L15.5271 13.0303C16.573 11.6646 17.1937 9.96002 17.1937 8.10817C17.1937 3.63005 13.5637 0 9.08558 0C4.60747 0 0.977417 3.63005 0.977417 8.10817C0.977417 12.5863 4.60747 16.2163 9.08558 16.2163C10.9374 16.2163 12.6441 15.5934 14.0077 14.5497L19.4581 20L20.9774 18.4806ZM3.12388 8.10817C3.12388 4.82113 5.79855 2.14647 9.08558 2.14647C12.3726 2.14647 15.0473 4.82113 15.0473 8.10817C15.0473 11.3952 12.3726 14.0699 9.08558 14.0699C5.79855 14.0699 3.12388 11.3952 3.12388 8.10817Z" fill="#1F36C7"/>
</svg>
